<?xml version="1.0" encoding="UTF-8" standalone="no"?>
<!-- Created with Inkscape (http://www.inkscape.org/) -->

<svg
   xmlns:dc="http://purl.org/dc/elements/1.1/"
   xmlns:cc="http://creativecommons.org/ns#"
   xmlns:rdf="http://www.w3.org/1999/02/22-rdf-syntax-ns#"
   xmlns:svg="http://www.w3.org/2000/svg"
   xmlns="http://www.w3.org/2000/svg"
   xmlns:sodipodi="http://sodipodi.sourceforge.net/DTD/sodipodi-0.dtd"
   xmlns:inkscape="http://www.inkscape.org/namespaces/inkscape"
   width="64"
   height="64"
   viewBox="0 0 16.933333 16.933333"
   version="1.1"
   id="svg2313"
   inkscape:version="0.92.4 (5da689c313, 2019-01-14)"
   sodipodi:docname="cloud.svg">
  <defs
     id="defs2307" />
  <sodipodi:namedview
     id="base"
     pagecolor="#ffffff"
     bordercolor="#666666"
     borderopacity="1.0"
     inkscape:pageopacity="0.0"
     inkscape:pageshadow="2"
     inkscape:zoom="7.9195959"
     inkscape:cx="20.048234"
     inkscape:cy="38.236028"
     inkscape:document-units="px"
     inkscape:current-layer="layer1"
     showgrid="true"
     units="px"
     inkscape:window-width="1920"
     inkscape:window-height="1017"
     inkscape:window-x="-8"
     inkscape:window-y="-8"
     inkscape:window-maximized="1">
    <inkscape:grid
       type="xygrid"
       id="grid2858"
       empspacing="4" />
  </sodipodi:namedview>
  <metadata
     id="metadata2310">
    <rdf:RDF>
      <cc:Work
         rdf:about="">
        <dc:format>image/svg+xml</dc:format>
        <dc:type
           rdf:resource="http://purl.org/dc/dcmitype/StillImage" />
        <dc:title></dc:title>
      </cc:Work>
    </rdf:RDF>
  </metadata>
  <g
     inkscape:label="Layer 1"
     inkscape:groupmode="layer"
     id="layer1"
     transform="translate(0,-280.06667)">
    <path
       style="opacity:1;fill:#d5d5d5;fill-opacity:1;fill-rule:nonzero;stroke:none;stroke-width:1.24346459;stroke-linecap:butt;stroke-linejoin:round;stroke-miterlimit:4;stroke-dasharray:none;stroke-dashoffset:21.53999901;stroke-opacity:1;paint-order:markers fill stroke"
       d="M 18 4 A 14 14 0 0 0 4 18 A 14 14 0 0 0 4.5917969 21.990234 A 14 14 0 0 0 1.9394531 30.166016 A 14 14 0 0 0 4.1953125 37.783203 A 14 14 0 0 0 3.2382812 42.830078 A 14 14 0 0 0 17.238281 56.830078 A 14 14 0 0 0 28.171875 51.552734 A 14 14 0 0 0 35.628906 53.722656 A 14 14 0 0 0 47.972656 46.310547 A 14 14 0 0 0 49.482422 46.398438 A 14 14 0 0 0 63.482422 32.398438 A 14 14 0 0 0 55.589844 19.822266 A 14 14 0 0 0 41.738281 7.7421875 A 14 14 0 0 0 30.984375 12.785156 A 14 14 0 0 0 18 4 z "
       transform="matrix(0.26458333,0,0,0.26458333,0,280.06667)"
       id="path2860" />
    <path
       sodipodi:type="inkscape:offset"
       inkscape:radius="-2.0111015"
       inkscape:original="M 4.8710938 281.17188 A 3.7041666 3.7041666 0 0 0 1.1660156 284.87695 A 3.7041666 3.7041666 0 0 0 1.3242188 285.93164 A 3.7041666 3.7041666 0 0 0 0.62109375 288.0957 A 3.7041666 3.7041666 0 0 0 1.21875 290.11133 A 3.7041666 3.7041666 0 0 0 0.96484375 291.44531 A 3.7041666 3.7041666 0 0 0 4.6699219 295.15039 A 3.7041666 3.7041666 0 0 0 7.5625 293.75391 A 3.7041666 3.7041666 0 0 0 9.5351562 294.32812 A 3.7041666 3.7041666 0 0 0 12.800781 292.36719 A 3.7041666 3.7041666 0 0 0 13.201172 292.39062 A 3.7041666 3.7041666 0 0 0 16.904297 288.68555 A 3.7041666 3.7041666 0 0 0 14.816406 285.35742 A 3.7041666 3.7041666 0 0 0 11.152344 282.16211 A 3.7041666 3.7041666 0 0 0 8.3066406 283.49609 A 3.7041666 3.7041666 0 0 0 4.8710938 281.17188 z "
       style="opacity:1;fill:#fcfcfc;fill-opacity:1;fill-rule:nonzero;stroke:none;stroke-width:0.329;stroke-linecap:butt;stroke-linejoin:round;stroke-miterlimit:4;stroke-dasharray:none;stroke-dashoffset:21.53999901;stroke-opacity:1;paint-order:markers fill stroke"
       id="path2860-3"
       d="m 4.8691406,283.18359 c -0.8851492,9.1e-4 -1.68806,0.80631 -1.6894531,1.69141 0.00148,0.16037 0.023939,0.32109 0.070312,0.47461 a 2.0113026,2.0113026 0 0 1 -0.296875,1.76172 c -0.2061853,0.28497 -0.3192179,0.63459 -0.3203125,0.98633 9.106e-4,0.3235 0.097233,0.64665 0.2734375,0.91796 a 2.0113026,2.0113026 0 0 1 0.1855469,1.82813 c -0.074963,0.19189 -0.1117515,0.39751 -0.1132813,0.60352 0.00139,0.88571 0.8055272,1.69162 1.6914063,1.6914 0.5055504,-0.001 1.0053475,-0.24125 1.3203125,-0.63672 a 2.0113026,2.0113026 0 0 1 2.6484375,-0.44726 c 0.2667824,0.16885 0.5807665,0.25822 0.8964843,0.25976 0.6085678,-0.002 1.2038138,-0.35753 1.4902348,-0.89453 a 2.0113026,2.0113026 0 0 1 2.001953,-1.05078 c 0.05814,0.007 0.115316,0.009 0.173828,0.01 0.885849,-2.5e-4 1.690501,-0.80567 1.691406,-1.69141 v -0.002 c -0.0016,-0.63027 -0.385994,-1.24451 -0.953125,-1.51953 a 2.0113026,2.0113026 0 0 1 -1.115234,-1.53321 c -0.110906,-0.79967 -0.864626,-1.45688 -1.671875,-1.45898 h -0.002 c -0.493883,6.8e-4 -0.9828,0.22982 -1.2988285,0.60937 A 2.0113026,2.0113026 0 0 1 6.4394531,284.24609 C 6.189808,283.62422 5.541167,283.18478 4.8710938,283.18359 Z" />
  </g>
</svg>
